<svg xmlns="http://www.w3.org/2000/svg" viewBox="0 0 720 420" role="img" aria-labelledby="title desc">
  <title id="title">Warehouse operations illustration</title>
  <desc id="desc">Stylised parts warehouse with shelving, boxes and a forklift.</desc>
  <rect width="720" height="420" rx="30" fill="#121a26"/>
  <circle cx="610" cy="70" r="110" fill="#38bdf8" opacity=".12"/>
  <circle cx="110" cy="340" r="130" fill="#f97316" opacity=".10"/>
  <path d="M80 320h560" stroke="#ffffff" stroke-opacity=".15" stroke-width="6" stroke-linecap="round"/>
  <g fill="none" stroke="#c2cbd7" stroke-width="10" stroke-linecap="round" stroke-linejoin="round" opacity=".75">
    <path d="M130 120h250v200H130z"/>
    <path d="M130 185h250M130 250h250M195 120v200M315 120v200"/>
  </g>
  <g fill="#f97316" opacity=".9">
    <rect x="155" y="140" width="55" height="38" rx="6"/>
    <rect x="235" y="205" width="72" height="38" rx="6"/>
    <rect x="318" y="270" width="45" height="38" rx="6"/>
  </g>
  <g fill="#38bdf8" opacity=".85">
    <rect x="225" y="140" width="58" height="38" rx="6"/>
    <rect x="150" y="205" width="62" height="38" rx="6"/>
    <rect x="210" y="270" width="75" height="38" rx="6"/>
  </g>
  <g transform="translate(430 220)">
    <path d="M25 80h145v28H25z" fill="#f97316"/>
    <path d="M70 20h36v60H70zM106 52h64v18h-64z" fill="#f97316"/>
    <path d="M170 70h35v10h-35z" fill="#c2cbd7"/>
    <circle cx="58" cy="118" r="24" fill="#0b1018" stroke="#38bdf8" stroke-width="8"/>
    <circle cx="144" cy="118" r="24" fill="#0b1018" stroke="#38bdf8" stroke-width="8"/>
  </g>
</svg>
