<svg xmlns="http://www.w3.org/2000/svg" width="1600" height="1000" viewBox="0 0 1600 1000">
  <defs>
    <linearGradient id="g" x1="0" x2="1" y1="0" y2="1">
      <stop offset="0" stop-color="#1e293b"/>
      <stop offset="1" stop-color="#020617"/>
    </linearGradient>
    <pattern id="shelves" width="180" height="140" patternUnits="userSpaceOnUse">
      <rect width="180" height="140" fill="none"/>
      <rect x="10" y="20" width="160" height="12" rx="4" fill="#334155" opacity=".65"/>
      <rect x="10" y="70" width="160" height="12" rx="4" fill="#334155" opacity=".65"/>
      <rect x="10" y="120" width="160" height="12" rx="4" fill="#334155" opacity=".65"/>
      <rect x="22" y="36" width="32" height="28" rx="3" fill="#64748b" opacity=".35"/>
      <rect x="66" y="36" width="44" height="28" rx="3" fill="#475569" opacity=".45"/>
      <rect x="124" y="36" width="30" height="28" rx="3" fill="#e11d48" opacity=".25"/>
      <rect x="24" y="86" width="48" height="28" rx="3" fill="#64748b" opacity=".32"/>
      <rect x="86" y="86" width="28" height="28" rx="3" fill="#475569" opacity=".45"/>
      <rect x="126" y="86" width="36" height="28" rx="3" fill="#64748b" opacity=".28"/>
    </pattern>
    <radialGradient id="r" cx="70%" cy="22%" r="40%">
      <stop offset="0" stop-color="#e11d48" stop-opacity=".38"/>
      <stop offset="1" stop-color="#e11d48" stop-opacity="0"/>
    </radialGradient>
  </defs>
  <rect width="1600" height="1000" fill="url(#g)"/>
  <rect width="1600" height="1000" fill="url(#shelves)" opacity=".55"/>
  <circle cx="1120" cy="220" r="420" fill="url(#r)"/>
  <path d="M0 780 C250 700 420 850 650 760 C890 665 1020 745 1220 680 C1390 625 1500 650 1600 610 L1600 1000 L0 1000Z" fill="#0f172a" opacity=".72"/>
  <g opacity=".28" stroke="#f8fafc" stroke-width="2">
    <path d="M1120 590h210l52 76H1170z" fill="none"/>
    <circle cx="1190" cy="698" r="38" fill="none"/>
    <circle cx="1330" cy="698" r="38" fill="none"/>
    <path d="M1110 590l-65 78h118" fill="none"/>
    <path d="M1196 540h90l44 50h-166z" fill="none"/>
  </g>
</svg>
